<svg style="filter:grayscale(1)" xmlns="http://www.w3.org/2000/svg" width="480" height="480" viewBox="0 0 480 480"><defs>
<pattern id="hatch" width="9" height="9" patternUnits="userSpaceOnUse" patternTransform="rotate(35)"><path d="M0 0V9" stroke="#666" stroke-width="1" opacity=".48"/></pattern>
<pattern id="fine" width="5" height="5" patternUnits="userSpaceOnUse" patternTransform="rotate(-35)"><path d="M0 0V5" stroke="#333" stroke-width=".7" opacity=".32"/></pattern>
<pattern id="paper" width="27" height="27" patternUnits="userSpaceOnUse"><path d="M0 7h5m8 14h7m-5-16h2M2 25h2" stroke="#aaa" opacity=".17" stroke-width="1"/></pattern>
<radialGradient id="globe" cx="30%" cy="26%" r="78%"><stop stop-color="#f2f0eb"/><stop offset=".6" stop-color="#d7d5cf"/><stop offset="1" stop-color="#999a96"/></radialGradient>
<linearGradient id="metal"><stop stop-color="#d4d3ce"/><stop offset=".3" stop-color="#777975"/><stop offset=".54" stop-color="#efede7"/><stop offset="1" stop-color="#666864"/></linearGradient>
<linearGradient id="news" x1="0" y1="0" x2=".9" y2="1"><stop stop-color="#f4f2ec"/><stop offset=".75" stop-color="#deddd7"/><stop offset="1" stop-color="#9a9b97"/></linearGradient>
</defs><g stroke="#3e423b" stroke-linejoin="round"><circle cx="240" cy="252" r="177" fill="url(#metal)" stroke-width="4"/><circle cx="240" cy="252" r="155" fill="#e2e3dc" stroke-width="2"/><circle cx="240" cy="252" r="137" fill="url(#paper)" stroke-width="1.5"/><path d="M218 69V50c0-27 44-27 44 0v19" fill="none" stroke-width="8"/><path d="M385.0 252.0L366.0 252.0" stroke-width="1.5"/><path d="M384.2 267.2L373.3 266.0" stroke-width="1.5"/><path d="M381.8 282.1L371.1 279.9" stroke-width="1.5"/><path d="M377.9 296.8L367.4 293.4" stroke-width="1.5"/><path d="M372.5 311.0L362.4 306.5" stroke-width="1.5"/><path d="M365.6 324.5L349.1 315.0" stroke-width="1.5"/><path d="M357.3 337.2L348.4 330.8" stroke-width="1.5"/><path d="M347.8 349.0L339.6 341.7" stroke-width="1.5"/><path d="M337.0 359.8L329.7 351.6" stroke-width="1.5"/><path d="M325.2 369.3L318.8 360.4" stroke-width="1.5"/><path d="M312.5 377.6L303.0 361.1" stroke-width="1.5"/><path d="M299.0 384.5L294.5 374.4" stroke-width="1.5"/><path d="M284.8 389.9L281.4 379.4" stroke-width="1.5"/><path d="M270.1 393.8L267.9 383.1" stroke-width="1.5"/><path d="M255.2 396.2L254.0 385.3" stroke-width="1.5"/><path d="M240.0 397.0L240.0 378.0" stroke-width="1.5"/><path d="M224.8 396.2L226.0 385.3" stroke-width="1.5"/><path d="M209.9 393.8L212.1 383.1" stroke-width="1.5"/><path d="M195.2 389.9L198.6 379.4" stroke-width="1.5"/><path d="M181.0 384.5L185.5 374.4" stroke-width="1.5"/><path d="M167.5 377.6L177.0 361.1" stroke-width="1.5"/><path d="M154.8 369.3L161.2 360.4" stroke-width="1.5"/><path d="M143.0 359.8L150.3 351.6" stroke-width="1.5"/><path d="M132.2 349.0L140.4 341.7" stroke-width="1.5"/><path d="M122.7 337.2L131.6 330.8" stroke-width="1.5"/><path d="M114.4 324.5L130.9 315.0" stroke-width="1.5"/><path d="M107.5 311.0L117.6 306.5" stroke-width="1.5"/><path d="M102.1 296.8L112.6 293.4" stroke-width="1.5"/><path d="M98.2 282.1L108.9 279.9" stroke-width="1.5"/><path d="M95.8 267.2L106.7 266.0" stroke-width="1.5"/><path d="M95.0 252.0L114.0 252.0" stroke-width="1.5"/><path d="M95.8 236.8L106.7 238.0" stroke-width="1.5"/><path d="M98.2 221.9L108.9 224.1" stroke-width="1.5"/><path d="M102.1 207.2L112.6 210.6" stroke-width="1.5"/><path d="M107.5 193.0L117.6 197.5" stroke-width="1.5"/><path d="M114.4 179.5L130.9 189.0" stroke-width="1.5"/><path d="M122.7 166.8L131.6 173.2" stroke-width="1.5"/><path d="M132.2 155.0L140.4 162.3" stroke-width="1.5"/><path d="M143.0 144.2L150.3 152.4" stroke-width="1.5"/><path d="M154.8 134.7L161.2 143.6" stroke-width="1.5"/><path d="M167.5 126.4L177.0 142.9" stroke-width="1.5"/><path d="M181.0 119.5L185.5 129.6" stroke-width="1.5"/><path d="M195.2 114.1L198.6 124.6" stroke-width="1.5"/><path d="M209.9 110.2L212.1 120.9" stroke-width="1.5"/><path d="M224.8 107.8L226.0 118.7" stroke-width="1.5"/><path d="M240.0 107.0L240.0 126.0" stroke-width="1.5"/><path d="M255.2 107.8L254.0 118.7" stroke-width="1.5"/><path d="M270.1 110.2L267.9 120.9" stroke-width="1.5"/><path d="M284.8 114.1L281.4 124.6" stroke-width="1.5"/><path d="M299.0 119.5L294.5 129.6" stroke-width="1.5"/><path d="M312.5 126.4L303.0 142.9" stroke-width="1.5"/><path d="M325.2 134.7L318.8 143.6" stroke-width="1.5"/><path d="M337.0 144.2L329.7 152.4" stroke-width="1.5"/><path d="M347.8 155.0L339.6 162.3" stroke-width="1.5"/><path d="M357.3 166.8L348.4 173.2" stroke-width="1.5"/><path d="M365.6 179.5L349.1 189.0" stroke-width="1.5"/><path d="M372.5 193.0L362.4 197.5" stroke-width="1.5"/><path d="M377.9 207.2L367.4 210.6" stroke-width="1.5"/><path d="M381.8 221.9L371.1 224.1" stroke-width="1.5"/><path d="M384.2 236.8L373.3 238.0" stroke-width="1.5"/><path d="M240 151 259 234 341 252 259 270 240 353 221 270 139 252 221 234Z" fill="#b1b7aa" stroke-width="2"/><path d="M240 151v101l-19-18Zm101 101H240l19-18ZM240 353V252l19 18ZM139 252h101l-19 18Z" fill="#42483e" stroke-width="1"/><circle cx="240" cy="252" r="9" fill="#dfe3d7" stroke-width="2"/><g font-family="Georgia,serif" font-size="23" fill="#34392f" stroke="none" text-anchor="middle"><text x="240" y="137">N</text><text x="240" y="384">S</text><text x="118" y="260">W</text><text x="363" y="260">E</text></g></g></svg>
